<?xml version="1.0" standalone="no"?>
<!DOCTYPE svg PUBLIC "-//W3C//DTD SVG 20010904//EN"
 "http://www.w3.org/TR/2001/REC-SVG-20010904/DTD/svg10.dtd">
<svg version="1.0" xmlns="http://www.w3.org/2000/svg"
 width="973.000000pt" height="834.000000pt" viewBox="0 0 973.000000 834.000000"
 preserveAspectRatio="xMidYMid meet">

<g transform="translate(0.000000,834.000000) scale(0.100000,-0.100000)"
fill="#000000" stroke="none">
<path d="M5021 8259 c-683 -38 -1328 -234 -1934 -585 -72 -42 -134 -79 -136
-80 -6 -6 21 -54 30 -54 4 0 57 30 116 66 410 248 914 439 1401 528 281 52
495 68 832 63 324 -5 474 -19 744 -73 703 -138 1356 -451 1921 -922 187 -155
495 -473 615 -634 38 -51 46 -55 75 -34 18 13 18 15 -10 52 -145 194 -498 552
-708 719 -534 425 -1127 712 -1767 856 -401 90 -774 121 -1179 98z"/>
<path d="M1775 7960 c-2 -3 52 -33 118 -68 163 -83 305 -196 417 -332 47 -57
108 -131 136 -164 27 -34 78 -103 113 -154 37 -56 66 -90 73 -86 7 4 8 3 4 -4
-3 -6 18 -51 47 -99 30 -48 66 -109 81 -136 27 -47 27 -47 55 -32 49 25 116
109 134 167 25 78 31 165 17 233 -7 33 -14 63 -17 68 -2 4 -19 -2 -36 -15
l-32 -21 28 30 c33 35 31 42 -29 134 -133 203 -392 358 -724 434 -131 29 -377
59 -385 45z m311 -77 c30 -38 62 -118 52 -129 -3 -3 -13 16 -22 43 -9 26 -30
65 -47 85 -16 21 -26 38 -21 38 5 0 22 -17 38 -37z m225 -50 c48 -51 73 -88
114 -172 36 -73 86 -228 84 -265 0 -11 -11 17 -24 64 -29 105 -66 195 -106
260 -24 39 -37 50 -57 51 -17 1 -21 3 -9 6 24 6 22 12 -20 55 -20 21 -33 38
-27 38 5 0 26 -17 45 -37z m99 -17 c0 -11 -19 -15 -25 -6 -3 5 1 10 9 10 9 0
16 -2 16 -4z m185 -157 c56 -115 97 -289 74 -313 -5 -6 -9 11 -9 40 0 96 -48
223 -133 354 l-29 45 35 -36 c20 -20 47 -60 62 -90z m-105 107 c0 -2 -7 -7
-16 -10 -8 -3 -12 -2 -9 4 6 10 25 14 25 6z m22 -106 c-12 -11 -24 -20 -28
-20 -4 0 1 9 11 20 10 11 23 20 28 20 6 0 1 -9 -11 -20z m273 -73 c6 -5 2 -6
-9 -3 -11 4 -33 -2 -53 -14 -19 -11 -31 -15 -28 -9 11 17 68 49 75 41 3 -4 10
-11 15 -15z m13 -49 c6 -18 13 -42 17 -53 3 -11 -1 -8 -10 8 -8 15 -21 27 -28
27 -8 0 -6 4 3 10 9 6 11 10 3 10 -7 0 -10 7 -7 15 9 22 12 19 22 -17z m47
-136 c7 -28 15 -79 19 -114 5 -58 4 -59 -4 -18 -6 25 -15 70 -21 100 -6 30
-13 64 -16 75 -3 11 -2 17 1 14 4 -4 13 -30 21 -57z m-184 -173 l-11 -34 5 34
c3 18 6 48 7 65 l1 31 4 -31 c2 -18 -1 -47 -6 -65z m206 -81 c-2 -13 -4 -3 -4
22 0 25 2 35 4 23 2 -13 2 -33 0 -45z m-22 -123 c-8 -22 -13 -29 -10 -15 3 14
8 43 12 65 6 31 8 34 11 15 1 -14 -4 -43 -13 -65z m-34 -88 c-10 -9 -11 -8 -5
6 3 10 9 15 12 12 3 -3 0 -11 -7 -18z"/>
<path d="M2221 6993 c-212 -215 -511 -578 -496 -603 3 -5 14 -14 25 -20 15 -8
25 -1 61 48 155 209 354 437 528 606 87 85 91 90 75 108 -10 10 -22 18 -27 18
-6 0 -81 -71 -166 -157z"/>
<path d="M2605 7051 c-3 -6 8 -25 25 -43 17 -18 29 -26 28 -18 -2 8 -7 18 -13
22 -6 5 -5 8 3 8 17 0 7 17 -18 30 -12 6 -21 7 -25 1z"/>
<path d="M3319 7025 c-227 -33 -369 -131 -369 -256 0 -26 4 -50 9 -53 4 -3 23
15 41 40 70 98 237 192 397 226 79 16 122 19 218 15 133 -6 129 4 -10 29 -94
17 -168 16 -286 -1z"/>
<path d="M3711 6815 c-98 -91 -161 -208 -161 -297 l0 -29 46 37 c25 21 52 50
60 65 9 18 20 26 28 23 16 -6 46 42 46 74 0 11 11 56 23 101 13 44 23 81 21
81 -2 0 -30 -25 -63 -55z m-6 -132 c-9 -15 -13 -19 -10 -8 4 11 10 29 13 40 3
11 7 14 9 8 3 -7 -3 -24 -12 -40z"/>
<path d="M2801 6825 c0 -5 14 -26 31 -45 16 -19 25 -26 19 -15 -16 31 -51 71
-50 60z"/>
<path d="M3180 6770 c-8 -5 -10 -10 -5 -10 6 0 17 5 25 10 8 5 11 10 5 10 -5
0 -17 -5 -25 -10z"/>
<path d="M2870 6734 c0 -12 38 -50 44 -43 2 2 -7 15 -20 29 -13 13 -24 20 -24
14z"/>
<path d="M3266 6665 c13 -42 24 -90 24 -108 0 -58 30 -161 61 -209 29 -44 49
-61 49 -40 0 5 -9 44 -20 87 -11 43 -20 81 -20 84 1 15 30 -64 30 -81 0 -17 3
-18 15 -8 18 15 19 7 4 -18 -9 -14 -8 -26 6 -51 l17 -33 16 23 c9 13 15 40 15
62 -1 25 3 40 13 44 9 3 14 19 14 42 0 65 -71 151 -206 251 l-42 30 24 -75z
m32 -10 c-3 -3 -9 2 -12 12 -6 14 -5 15 5 6 7 -7 10 -15 7 -18z m30 -76 c20
-32 10 -30 -16 2 -13 16 -17 27 -10 24 7 -3 19 -15 26 -26z m31 -82 c1 -5 -3
-5 -9 -2 -5 3 -10 16 -9 28 0 21 1 21 9 2 5 -11 9 -24 9 -28z m86 -27 c-9 -41
-17 -33 -9 9 4 17 9 30 11 27 3 -2 2 -19 -2 -36z m6 -123 c-10 -9 -11 -8 -5 6
3 10 9 15 12 12 3 -3 0 -11 -7 -18z"/>
<path d="M5070 6684 c-156 -15 -273 -53 -368 -121 -99 -70 -179 -197 -189
-301 l-6 -56 34 22 c241 149 684 279 982 289 106 4 150 1 250 -18 142 -27 139
-27 144 -14 8 24 -253 140 -290 130 -15 -4 -18 -3 -9 3 9 6 -11 14 -60 25 -69
15 -76 15 -130 -3 -31 -10 -66 -23 -77 -30 -12 -6 -21 -8 -21 -6 0 9 78 46 95
46 8 0 15 4 15 9 0 12 -161 25 -196 17 -17 -5 -23 -3 -19 4 6 10 -69 12 -155
4z m100 -39 c-14 -8 -29 -14 -35 -14 -5 0 1 6 15 14 14 8 30 14 35 14 6 0 -1
-6 -15 -14z m350 -59 c0 -2 -7 -7 -16 -10 -8 -3 -12 -2 -9 4 6 10 25 14 25 6z
m205 -46 c-3 -5 -14 -10 -23 -10 -15 0 -15 2 -2 10 20 13 33 13 25 0z"/>
<path d="M2976 6603 c14 -27 30 -53 35 -59 19 -23 140 -240 199 -355 34 -67
77 -164 95 -216 33 -92 99 -211 92 -165 -2 12 -9 28 -15 34 -15 15 -16 42 -2
33 16 -10 12 8 -16 71 -61 141 -198 391 -289 530 -11 17 -40 63 -65 102 -51
80 -75 97 -34 25z"/>
<path d="M3728 6600 c-36 -27 -73 -58 -80 -69 -8 -12 -17 -18 -20 -15 -3 2
-26 -16 -52 -41 -46 -46 -46 -47 -48 -118 l-1 -72 -6 55 c-6 53 -6 54 -18 27
-7 -15 -13 -54 -13 -86 0 -46 5 -66 25 -95 14 -21 23 -43 19 -49 -3 -7 9 4 26
23 33 38 82 127 125 229 14 35 48 108 75 162 26 55 45 99 42 99 -4 -1 -37 -23
-74 -50z m-101 -142 c-3 -8 -6 -5 -6 6 -1 11 2 17 5 13 3 -3 4 -12 1 -19z"/>
<path d="M6606 6534 c-102 -33 -206 -96 -265 -160 -25 -27 -71 -90 -102 -140
-59 -93 -471 -755 -505 -811 -37 -62 -324 -522 -524 -843 -112 -179 -241 -390
-288 -468 -47 -79 -91 -146 -97 -149 -7 -2 -39 3 -71 11 -201 51 -431 63 -526
27 -111 -43 -135 -112 -77 -221 16 -31 51 -77 77 -102 51 -50 178 -138 198
-138 15 0 50 -54 59 -90 4 -20 -3 -35 -38 -75 -120 -139 -312 -451 -301 -490
4 -14 3 -16 -4 -7 -7 11 -12 7 -21 -15 -6 -15 -15 -35 -20 -43 -5 -8 -32 -62
-60 -120 -28 -58 -58 -114 -67 -125 l-15 -20 -18 20 c-9 11 -28 29 -41 40 -16
12 -13 7 8 -16 39 -42 40 -53 5 -103 l-26 -39 -20 24 c-26 33 -60 101 -87 179
-13 35 -34 84 -47 108 -57 101 -94 252 -63 252 6 0 10 -4 10 -10 0 -5 5 -10
11 -10 6 0 1 16 -11 35 -12 20 -20 42 -17 49 3 7 -12 31 -34 52 -28 27 -36 41
-28 50 7 8 7 14 -1 19 -5 3 -10 14 -10 23 0 13 2 14 9 4 5 -9 10 -1 15 27 3
22 14 46 24 53 9 7 18 20 20 28 2 8 -14 -2 -34 -24 -35 -35 -38 -43 -40 -102
-2 -35 1 -64 6 -64 10 0 8 -126 -3 -136 -4 -4 -7 19 -7 51 0 66 -17 87 -63 78
-21 -4 -26 -2 -22 9 3 8 -1 21 -10 28 -8 7 -15 17 -15 23 0 6 7 2 15 -9 14
-19 14 -19 14 1 0 26 -25 59 -38 50 -6 -3 -14 1 -17 9 -3 9 -9 14 -13 12 -4
-3 -27 11 -51 31 -92 73 -108 84 -131 88 -12 3 -25 8 -28 13 -3 5 -19 16 -36
25 -28 14 -30 20 -41 110 -14 112 -46 186 -105 247 -44 46 -120 84 -185 95
-83 13 -232 -39 -323 -113 -25 -20 -46 -32 -48 -27 -2 6 -14 28 -27 49 l-23
39 48 61 c30 36 62 93 81 141 27 69 32 93 32 175 1 85 -2 101 -27 153 -44 88
-138 152 -285 192 -141 39 -482 26 -686 -26 -96 -25 -106 -32 -105 -73 0 -17
3 -24 6 -16 4 8 13 20 22 27 13 10 13 12 2 13 -8 0 -12 2 -9 5 4 5 58 -15 178
-67 57 -24 63 -28 194 -112 44 -28 87 -55 97 -61 24 -14 249 -196 249 -201 0
-9 -12 0 -126 92 -66 52 -156 119 -202 147 -213 134 -216 135 -251 91 -24 -31
-20 -44 17 -45 22 -1 19 -3 -13 -11 -22 -5 -51 -10 -65 -10 -14 0 -19 -3 -12
-5 6 -3 12 -9 12 -14 0 -6 -4 -8 -9 -5 -5 4 -8 0 -7 -6 9 -50 144 -227 243
-318 84 -77 189 -142 273 -170 85 -29 203 -25 268 9 24 12 45 21 47 19 8 -9
46 -90 43 -92 -3 -2 -386 -34 -470 -39 -20 -1 -34 1 -31 6 14 23 -117 201
-184 250 -143 104 -260 142 -438 141 -132 -1 -203 -19 -300 -74 -53 -31 -137
-99 -98 -80 31 14 173 43 180 36 4 -3 -2 -6 -13 -6 -50 -1 -48 -16 7 -84 l54
-66 75 -1 c41 0 98 -7 125 -15 28 -7 37 -11 20 -8 -16 4 -98 8 -180 10 l-151
4 -2 -33 c-1 -18 5 -41 14 -52 8 -11 12 -13 8 -5 -4 9 -3 12 2 7 5 -5 9 -16 9
-25 0 -14 16 -18 105 -24 58 -4 117 -12 130 -18 22 -9 21 -10 -10 -5 -19 3
-78 9 -131 12 -115 7 -139 -2 -139 -52 0 -18 -6 -36 -12 -38 -10 -4 -10 -7 -1
-14 8 -5 9 -14 3 -23 -8 -12 -10 -12 -16 3 -5 14 -9 15 -20 6 -20 -16 -17 -39
3 -37 10 2 43 -1 73 -5 54 -8 60 -6 140 36 47 25 107 53 133 63 48 17 48 18
25 30 -12 7 -19 13 -15 14 5 0 18 -5 29 -11 17 -9 46 -6 137 16 159 38 150 34
119 51 -42 22 -33 27 9 6 33 -17 53 -18 150 -13 61 3 109 3 106 -1 -2 -5 -22
-8 -44 -8 -59 0 -305 -39 -365 -57 -49 -15 -52 -18 -67 -67 -11 -33 -13 -54
-7 -60 15 -15 12 -30 -4 -17 -11 9 -17 1 -34 -39 l-21 -50 56 -60 c82 -89 86
-90 127 -33 20 27 43 64 52 83 10 19 33 67 51 105 19 39 31 59 27 45 -3 -14
-28 -71 -56 -127 -27 -57 -47 -107 -43 -113 3 -5 0 -8 -7 -5 -7 2 -26 -14 -42
-38 l-29 -41 22 -38 c11 -20 21 -50 20 -65 -1 -25 -2 -24 -11 10 -9 33 -12 36
-27 25 -14 -12 -15 -11 -2 5 11 14 11 20 1 33 -12 13 -16 12 -37 -12 -27 -32
-27 -31 -7 -79 15 -36 17 -37 52 -31 20 3 43 6 50 6 7 0 10 4 7 10 -3 6 1 7 9
4 17 -6 81 12 199 58 247 97 340 276 248 483 l-20 45 68 0 c37 0 110 3 162 7
l94 6 -32 -27 c-18 -15 -47 -57 -65 -93 -59 -121 -39 -251 73 -475 l51 -102
24 69 c13 39 21 57 18 40 -2 -16 -6 -44 -8 -62 -3 -18 -8 -38 -12 -45 -6 -9
-3 -9 9 1 9 7 17 9 17 4 0 -5 20 -10 44 -12 l44 -2 33 66 c18 36 50 86 72 111
l40 45 -18 62 c-34 119 -37 127 -45 122 -4 -3 -6 3 -4 12 3 10 -7 52 -22 93
-83 237 -81 230 -64 230 6 0 10 -8 10 -17 0 -17 31 -105 49 -141 20 -39 102
-326 131 -462 17 -80 38 -175 46 -211 9 -36 17 -87 19 -112 2 -37 10 -55 39
-87 46 -51 47 -75 1 -30 -26 25 -35 29 -35 17 0 -9 9 -21 20 -27 12 -6 20 -21
20 -36 0 -14 4 -22 10 -19 6 3 10 -1 10 -9 0 -14 -13 -20 -47 -19 -11 0 -27
-56 -18 -65 6 -6 88 81 135 144 21 27 55 83 75 124 41 81 37 82 86 -14 30 -58
31 -59 50 -39 19 19 19 20 -23 99 l-42 81 32 80 c45 115 82 246 95 341 6 45
15 82 20 82 32 0 190 -101 257 -164 l53 -49 -37 -30 c-20 -16 -36 -33 -36 -38
0 -5 -15 -23 -32 -40 -29 -27 -30 -28 -6 -14 l27 17 -8 -29 c-30 -103 -122
-240 -270 -403 -37 -41 -68 -64 -100 -76 -25 -10 -55 -25 -65 -35 -19 -18 -19
-18 10 -30 36 -14 99 -17 137 -6 24 7 30 4 34 -13 3 -11 9 -20 13 -20 8 0 25
53 18 57 -2 1 27 33 64 70 60 62 69 75 87 141 22 79 30 95 103 199 42 60 48
76 53 132 5 72 15 89 44 75 19 -8 19 -11 6 -34 -8 -14 -17 -32 -20 -40 -4 -8
-14 -32 -23 -53 -9 -22 -39 -74 -68 -118 -51 -76 -82 -145 -71 -156 3 -3 10
13 16 34 12 44 63 121 86 130 8 3 12 9 9 14 -3 5 -3 9 0 9 3 0 13 -14 21 -31
22 -41 7 -113 -40 -194 -34 -57 -75 -140 -106 -213 -8 -17 -17 -32 -21 -32 -5
0 -8 -6 -8 -14 0 -7 -22 -34 -50 -60 -27 -26 -56 -59 -64 -74 -21 -41 -157
-152 -219 -180 -37 -16 -47 -15 -47 3 0 8 -3 15 -7 15 -7 0 -50 -58 -61 -81
-1 -3 36 -6 82 -8 132 -4 197 33 280 159 25 37 51 72 58 76 10 5 10 4 2 -5 -8
-9 -4 -30 17 -82 118 -291 224 -716 244 -981 l7 -88 43 0 c24 0 46 3 49 8 4 7
-41 298 -49 311 -2 4 -13 50 -24 102 -30 139 -55 224 -122 422 -79 233 -120
325 -139 319 -8 -2 3 15 26 39 53 58 66 81 93 162 13 38 38 85 58 110 20 23
47 67 61 97 14 30 27 50 28 45 10 -35 47 -314 64 -494 l22 -213 -27 -59 c-57
-128 -54 -263 8 -315 46 -39 143 -81 239 -103 95 -22 252 -63 448 -116 74 -20
149 -41 165 -45 17 -4 82 -22 145 -40 128 -35 199 -54 375 -100 94 -25 348
-96 488 -137 15 -5 16 -8 5 -15 -9 -7 -1 -8 23 -5 22 3 60 -2 94 -14 169 -56
352 -28 500 77 95 67 147 129 236 279 45 77 103 175 128 218 25 43 51 86 56
95 6 9 26 44 45 77 19 33 40 68 45 77 6 9 25 43 44 75 48 82 378 642 439 743
48 81 148 251 194 330 27 47 74 126 104 175 31 50 68 113 84 140 54 97 132
231 175 300 23 39 111 187 195 330 84 143 172 293 196 332 24 40 44 75 44 78
0 3 62 110 138 238 140 234 204 343 385 652 54 94 115 197 135 230 267 448
283 481 290 586 7 118 -46 203 -147 233 -54 16 -69 18 -366 46 -115 11 -250
25 -300 30 -49 6 -162 17 -250 25 -88 9 -185 20 -215 25 -30 5 -95 11 -145 14
-91 4 -255 21 -556 56 -231 28 -343 26 -443 -6z m261 -69 c76 -8 143 -17 150
-20 9 -3 7 -15 -7 -47 -31 -69 -21 -121 30 -148 10 -5 197 -28 417 -50 219
-23 474 -49 566 -59 120 -13 181 -16 210 -9 60 13 130 61 174 119 44 58 43 58
248 34 160 -19 207 -39 243 -105 19 -37 23 -55 19 -101 -6 -69 -5 -66 -232
-449 -103 -173 -273 -461 -378 -640 -104 -179 -240 -410 -302 -515 -62 -104
-217 -368 -345 -585 -128 -217 -270 -458 -315 -535 -45 -77 -136 -230 -200
-340 -65 -110 -183 -310 -263 -445 -80 -135 -161 -272 -180 -305 -20 -33 -114
-193 -210 -355 -97 -162 -206 -348 -243 -413 -37 -65 -84 -140 -105 -167 -75
-98 -197 -167 -311 -177 -76 -6 -73 -6 -613 140 -173 47 -418 113 -545 147
-126 34 -304 82 -395 106 -91 25 -241 65 -334 90 -93 24 -185 54 -204 66 -49
30 -76 95 -69 162 8 67 43 134 217 411 79 127 203 327 275 445 73 118 208 337
300 485 210 337 321 518 497 810 77 127 150 246 163 265 12 19 70 112 128 205
57 94 203 328 323 520 276 444 490 789 666 1075 146 238 191 291 288 344 42
23 141 52 187 55 6 1 73 -6 150 -14z m-5133 -2031 c3 -8 2 -12 -4 -9 -6 3 -10
10 -10 16 0 14 7 11 14 -7z m-59 -92 c-3 -3 -11 0 -18 7 -9 10 -8 11 6 5 10
-3 15 -9 12 -12z m42 -138 c-3 -3 -12 -4 -19 -1 -8 3 -5 6 6 6 11 1 17 -2 13
-5z m533 -194 c0 -5 -2 -10 -4 -10 -3 0 -8 5 -11 10 -3 6 -1 10 4 10 6 0 11
-4 11 -10z m-1017 -47 c-13 -2 -35 -2 -50 0 -16 2 -5 4 22 4 28 0 40 -2 28 -4z
m114 -9 c-3 -3 -12 -4 -19 -1 -8 3 -5 6 6 6 11 1 17 -2 13 -5z m46 -11 c-7 -2
-19 -2 -25 0 -7 3 -2 5 12 5 14 0 19 -2 13 -5z m67 -13 c13 -9 13 -10 0 -9 -8
0 -24 4 -35 9 l-20 9 20 0 c11 0 27 -4 35 -9z m100 -30 c8 -5 11 -10 5 -10 -5
0 -17 5 -25 10 -8 5 -10 10 -5 10 6 0 17 -5 25 -10z m75 -30 c8 -13 -5 -13
-25 0 -13 8 -13 10 2 10 9 0 20 -4 23 -10z m765 -15 c13 -14 21 -25 18 -25 -2
0 -15 11 -28 25 -13 14 -21 25 -18 25 2 0 15 -11 28 -25z m-600 -81 c0 -2 -9
0 -20 6 -11 6 -20 13 -20 16 0 2 9 0 20 -6 11 -6 20 -13 20 -16z m2880 -4 c15
-4 -19 -7 -80 -6 -60 0 -92 3 -75 7 40 9 124 9 155 -1z m-230 -23 c0 -2 -12
-14 -27 -28 l-28 -24 24 28 c23 25 31 32 31 24z m-2905 -17 c3 -6 -1 -7 -9 -4
-18 7 -21 14 -7 14 6 0 13 -4 16 -10z m153 -121 c-6 -16 -12 -28 -14 -26 -5 5
13 57 20 57 3 0 0 -14 -6 -31z m-603 -9 c-4 -12 -9 -19 -12 -17 -3 3 -2 15 2
27 4 12 9 19 12 17 3 -3 2 -15 -2 -27z m381 -202 l29 -33 -32 29 c-31 28 -38
36 -30 36 2 0 16 -15 33 -32z m365 -21 c-10 -9 -11 -8 -5 6 3 10 9 15 12 12 3
-3 0 -11 -7 -18z m629 -117 c-6 -11 -13 -20 -16 -20 -2 0 0 9 6 20 6 11 13 20
16 20 2 0 0 -9 -6 -20z m345 10 c3 -6 -1 -7 -9 -4 -18 7 -21 14 -7 14 6 0 13
-4 16 -10z m-1182 -90 c5 -8 -5 1 -22 20 -17 19 -31 38 -31 43 0 9 32 -29 53
-63z m1302 -1 l40 -43 -50 43 c-68 60 -73 65 -50 53 11 -6 38 -30 60 -53z
m-507 6 c-12 -24 -23 -43 -26 -41 -4 5 36 86 43 86 3 0 -5 -20 -17 -45z m-775
-45 c-28 -28 -57 -50 -64 -50 -15 0 -11 5 56 59 68 55 71 51 8 -9z m1899 -65
c-2 -30 -8 -53 -13 -49 -10 6 -12 48 -3 82 11 40 19 23 16 -33z m-755 15 c14
-11 22 -20 17 -20 -12 1 -61 39 -51 40 5 0 20 -9 34 -20z m1442 -59 c-29 -53
-35 -47 -8 8 11 24 23 41 26 38 3 -3 -5 -24 -18 -46z m-1331 -67 c-4 -3 -12 5
-18 18 -12 22 -12 22 6 6 10 -10 15 -20 12 -24z m-443 16 c4 -6 -6 -7 -27 -3
-44 8 -48 13 -10 13 17 0 34 -4 37 -10z m315 -112 c0 -13 -5 -9 -31 19 l-24
26 27 -19 c15 -10 28 -22 28 -26z m69 -113 c0 -5 -6 1 -14 15 -8 14 -14 30
-14 35 0 6 6 -1 14 -15 8 -14 14 -29 14 -35z m774 -37 c9 -21 14 -38 11 -38
-5 0 -34 64 -34 76 0 12 7 0 23 -38z m101 -188 c27 -85 54 -132 90 -162 18
-14 19 -20 9 -35 -7 -10 -31 -48 -54 -85 -42 -69 -59 -83 -59 -49 0 11 -4 22
-8 25 -4 2 -6 -10 -4 -29 2 -18 -1 -36 -7 -39 -6 -4 -8 9 -4 41 13 120 -9 398
-38 456 -7 16 -2 14 19 -9 18 -19 39 -62 56 -114z m-53 -97 c1 -10 2 -33 4
-50 1 -18 -1 -33 -6 -33 -5 0 -9 12 -10 28 0 15 -2 37 -5 50 -2 12 1 22 6 22
6 0 10 -8 11 -17z"/>
<path d="M6420 4710 c-19 -5 -71 -13 -114 -19 -81 -11 -245 -62 -280 -87 -17
-12 -23 -11 -38 3 -31 28 -88 20 -120 -16 -31 -35 -36 -66 -13 -91 13 -14 9
-21 -33 -66 -26 -28 -62 -68 -81 -89 -19 -22 -51 -45 -70 -52 -60 -21 -95 -82
-72 -127 10 -18 8 -31 -13 -76 -14 -30 -29 -70 -32 -88 -4 -22 -15 -37 -35
-48 -35 -18 -48 -58 -26 -82 8 -9 18 -42 22 -72 4 -30 18 -75 31 -98 21 -40
22 -46 9 -71 -21 -41 -1 -74 50 -82 22 -3 63 -22 92 -41 29 -20 76 -44 105
-54 29 -9 62 -23 73 -30 27 -19 186 -18 268 1 35 8 94 24 129 35 58 18 69 18
98 6 72 -30 156 23 147 93 -4 33 1 42 72 116 42 44 90 101 106 127 20 31 41
51 62 58 39 14 83 63 83 94 0 12 -7 32 -16 44 -21 31 -4 81 39 107 23 15 33
29 35 53 2 21 -2 34 -11 37 -11 5 -13 23 -9 83 3 60 0 88 -15 128 -19 49 -19
51 -1 73 40 50 13 96 -54 94 -29 -2 -50 5 -72 22 -44 33 -237 125 -261 124
-11 -1 -36 -5 -55 -9z m176 -69 c54 -28 110 -58 123 -69 23 -18 23 -20 7 -45
-10 -14 -16 -38 -14 -54 2 -21 10 -29 37 -37 33 -9 33 -10 27 -54 -3 -25 -22
-76 -41 -113 -19 -38 -33 -69 -32 -69 7 0 76 107 86 133 6 16 11 46 11 68 0
52 23 52 38 0 28 -93 27 -201 -3 -201 -41 0 -74 -88 -40 -107 24 -14 5 -67
-27 -71 -23 -3 -29 5 -64 75 -21 43 -39 85 -39 93 -1 8 12 29 28 47 24 25 27
35 18 50 -10 17 -10 16 -11 -5 0 -29 -51 -82 -78 -82 -11 0 -22 -5 -24 -11 -2
-6 -15 -1 -32 12 -23 18 -27 28 -24 60 3 29 1 35 -9 27 -7 -6 -13 -30 -13 -54
0 -38 4 -45 30 -59 16 -8 41 -13 54 -11 31 6 56 -21 90 -94 25 -52 25 -56 8
-70 -31 -26 -52 -64 -52 -92 0 -25 -8 -32 -65 -60 -55 -28 -69 -31 -85 -20
-35 22 -73 14 -114 -23 -27 -24 -34 -35 -23 -35 25 0 21 -37 -5 -51 -12 -6
-32 -24 -45 -40 -28 -33 -85 -48 -108 -29 -24 20 -18 63 13 93 32 31 76 35
104 10 22 -20 29 -15 22 14 -13 48 -112 36 -159 -18 -26 -32 -32 -68 -15 -99
11 -21 -9 -39 -89 -79 l-43 -22 -22 20 c-12 12 -36 21 -52 21 -25 0 -32 6 -42
34 -10 26 -10 40 0 60 10 22 9 29 -5 44 -14 13 -22 14 -47 5 -26 -10 -34 -8
-69 18 -58 41 -67 63 -41 98 36 52 19 106 -31 99 -19 -2 -25 4 -35 37 -7 22
-13 70 -13 107 -1 59 1 67 20 73 23 8 59 61 59 88 0 31 54 77 90 77 21 0 39 9
56 27 22 24 23 28 9 49 -13 21 -12 23 11 38 28 19 125 26 131 10 2 -6 -24 -21
-57 -33 -74 -27 -74 -37 -1 -15 51 15 54 15 68 -5 31 -45 137 -13 163 49 15
36 9 54 -24 75 -32 21 -75 13 -116 -22 -24 -20 -42 -25 -89 -26 -46 -2 -65 -7
-83 -24 -14 -13 -31 -23 -40 -23 -28 0 -68 -40 -68 -69 0 -35 -54 -91 -72 -73
-14 14 0 35 81 124 44 47 73 70 103 80 29 9 50 24 66 48 13 19 38 43 57 52 59
31 185 69 273 83 150 23 167 21 278 -34z m-640 -46 c33 -23 25 -57 -18 -78
-29 -14 -42 -16 -58 -7 -37 20 -19 75 30 93 23 8 24 8 46 -8z m888 -51 c20
-19 20 -24 0 -52 -21 -31 -58 -44 -89 -32 -33 13 -32 44 1 75 31 29 66 32 88
9z m-650 -40 c23 -23 19 -52 -10 -79 -43 -40 -104 -31 -104 14 0 60 76 103
114 65z m-294 -99 c16 -20 6 -43 -25 -57 -21 -9 -29 -9 -41 3 -18 19 -9 48 20
59 29 12 32 12 46 -5z m-186 -131 c9 -4 16 -18 16 -34 0 -52 -80 -92 -110 -55
-16 19 -5 50 27 75 27 21 41 24 67 14z m1166 -99 c18 -21 -12 -65 -44 -65 -48
0 -57 52 -12 70 31 13 42 12 56 -5z m-222 -20 c-3 -3 -9 2 -12 12 -6 14 -5 15
5 6 7 -7 10 -15 7 -18z m-998 -76 c0 -33 5 -80 11 -104 9 -36 8 -48 -5 -67 -9
-12 -16 -33 -16 -46 0 -13 -7 -37 -16 -54 -9 -17 -19 -51 -23 -76 -3 -25 -11
-47 -17 -49 -16 -5 -52 75 -55 125 -3 33 2 47 22 69 37 39 43 62 22 85 -15 17
-15 22 0 71 21 64 54 120 67 112 6 -3 10 -33 10 -66z m1131 -99 c25 -14 24
-41 -1 -73 -17 -22 -26 -25 -53 -20 -63 12 -73 39 -31 78 29 27 54 31 85 15z
m-1216 -40 c12 -19 -24 -60 -50 -60 -19 0 -25 5 -25 23 0 13 5 28 12 35 15 15
55 16 63 2z m175 -25 c27 -32 -33 -93 -69 -70 -19 11 -12 53 11 69 28 20 42
20 58 1z m945 -55 c9 -15 -72 -124 -143 -193 -42 -42 -66 -58 -83 -57 -43 4
-56 0 -93 -25 -45 -30 -75 -32 -104 -5 -30 28 -28 33 18 54 22 9 47 30 57 47
17 28 28 33 67 29 32 -3 76 22 92 53 19 35 2 28 -34 -15 -22 -26 -82 -42 -67
-18 3 6 1 10 -4 10 -19 0 -12 49 11 70 27 25 53 26 70 1 13 -19 16 -18 93 19
84 40 110 47 120 30z m-961 -71 c9 -16 33 -41 52 -57 29 -23 33 -31 28 -58 -8
-42 16 -62 57 -47 27 11 30 9 44 -17 15 -29 8 -44 -25 -52 -19 -4 -39 -37 -40
-65 0 -13 -6 -23 -13 -23 -21 0 -132 58 -151 78 -15 18 -15 21 4 45 23 28 26
70 8 84 -7 6 -26 13 -42 17 -27 7 -28 9 -22 52 9 66 20 81 54 76 18 -2 35 -14
46 -33z m174 -96 c2 -14 -5 -27 -22 -38 -47 -31 -76 6 -39 47 22 25 57 20 61
-9z m-227 -39 c30 -36 -48 -104 -89 -78 -26 17 -26 43 -1 70 26 28 70 32 90 8z
m545 -60 c19 -29 63 -54 94 -54 15 0 20 -5 18 -17 -7 -35 -228 -94 -348 -92
-36 1 -56 4 -45 6 33 9 63 33 75 62 7 18 26 35 51 47 22 10 57 30 77 46 46 34
57 35 78 2z m252 -16 c18 -18 14 -56 -8 -78 -26 -26 -86 -27 -98 -2 -27 50 66
120 106 80z m-490 -30 c17 -17 14 -50 -7 -75 -22 -27 -48 -29 -79 -7 -29 20
-28 39 3 69 26 27 64 32 83 13z m-77 -116 c-7 -2 -18 1 -23 6 -8 8 -4 9 13 5
13 -4 18 -8 10 -11z"/>
<path d="M6403 4666 c-32 -15 -50 -39 -63 -85 -9 -35 28 -71 74 -71 42 0 61
-22 57 -66 -3 -35 0 -37 64 -46 11 -2 30 -21 42 -43 12 -22 23 -35 23 -29 0 8
13 9 43 4 45 -9 53 -7 42 9 -3 6 -23 11 -43 11 -31 0 -40 5 -54 30 -16 28 -16
32 -1 58 21 36 11 61 -26 68 -35 7 -48 49 -29 101 10 28 10 36 -4 49 -22 22
-87 27 -125 10z m105 -41 c4 -43 -47 -95 -92 -95 -25 0 -38 7 -50 24 -32 49
21 107 94 103 42 -2 45 -4 48 -32z m2 -107 c0 -23 -18 -32 -35 -18 -12 10 -12
15 3 35 18 24 32 16 32 -17z m67 -43 c8 -23 -26 -55 -58 -55 -36 0 -45 15 -25
45 19 29 73 35 83 10z"/>
<path d="M6274 4534 c-18 -14 -18 -14 6 -3 31 14 36 19 24 19 -6 0 -19 -7 -30
-16z"/>
<path d="M6013 4214 c-109 -96 -233 -216 -233 -226 0 -21 57 -5 86 23 l32 31
68 -14 69 -14 -3 -41 c-3 -37 -1 -41 24 -47 14 -4 28 -6 29 -4 3 3 31 128 66
291 7 31 10 59 8 61 -2 2 -16 6 -31 10 -24 6 -39 -3 -115 -70z m74 -16 c-2 -7
-10 -39 -18 -71 l-13 -59 -39 6 c-22 4 -44 9 -50 13 -5 3 17 32 49 64 56 57
82 73 71 47z"/>
<path d="M6316 4188 c-115 -199 -163 -288 -158 -293 3 -3 17 -5 31 -5 27 0 46
29 184 273 l39 67 -36 0 c-31 0 -38 -5 -60 -42z"/>
<path d="M6760 3900 c-9 -6 -10 -10 -3 -10 6 0 15 5 18 10 8 12 4 12 -15 0z"/>
<path d="M1128 6493 c7 -3 16 -2 19 1 4 3 -2 6 -13 5 -11 0 -14 -3 -6 -6z"/>
<path d="M1210 6476 c0 -8 4 -17 8 -20 4 -2 8 4 8 15 0 10 -4 19 -8 19 -4 0
-8 -6 -8 -14z"/>
<path d="M1245 6450 c3 -5 8 -10 11 -10 2 0 4 5 4 10 0 6 -5 10 -11 10 -5 0
-7 -4 -4 -10z"/>
<path d="M1281 6445 c-1 -21 56 -68 71 -59 11 7 10 44 -2 44 -5 0 -7 8 -3 18
5 13 0 11 -20 -7 l-27 -24 -9 24 c-8 21 -10 21 -10 4z"/>
<path d="M1405 6450 c3 -6 0 -13 -9 -16 -8 -3 -19 -18 -24 -34 -10 -27 -7 -30
41 -65 l52 -36 7 28 c7 28 7 28 5 -3 -1 -27 7 -40 53 -80 128 -115 204 -202
271 -309 26 -42 60 -117 36 -81 -6 10 -37 58 -68 106 -115 178 -375 410 -440
393 -11 -3 -31 -28 -45 -54 -28 -57 -41 -65 -19 -13 19 46 50 85 60 76 5 -4 5
-1 1 6 -8 13 -62 44 -83 48 -17 3 -26 -13 -12 -22 6 -3 15 0 20 7 7 11 9 10 9
-4 0 -15 -5 -17 -27 -13 -32 7 -44 -6 -67 -74 l-14 -40 47 -34 c64 -47 163
-152 200 -213 24 -39 41 -55 69 -63 52 -17 344 -140 359 -152 7 -6 20 -8 28
-4 9 3 14 2 11 -3 -3 -4 5 -13 17 -18 18 -9 23 -8 24 6 1 9 5 41 8 72 15 116
-44 266 -150 377 -80 85 -160 146 -176 136 -7 -4 -9 -3 -6 3 7 11 -41 36 -122
64 -63 22 -64 22 -56 9z m85 -62 c0 -25 -3 -29 -10 -18 -13 20 -13 50 0 50 6
0 10 -15 10 -32z m-199 -12 c5 3 9 0 9 -5 0 -6 -7 -11 -15 -11 -8 0 -15 8 -14
18 0 10 3 12 6 4 2 -6 9 -10 14 -6z m-81 -20 c0 -3 -4 -8 -10 -11 -5 -3 -10
-1 -10 4 0 6 5 11 10 11 6 0 10 -2 10 -4z m477 -153 c-3 -10 -5 -4 -5 12 0 17
2 24 5 18 2 -7 2 -21 0 -30z"/>
<path d="M5133 6413 c9 -2 23 -2 30 0 6 3 -1 5 -18 5 -16 0 -22 -2 -12 -5z"/>
<path d="M5155 6379 c-16 -10 -24 -19 -17 -19 6 0 11 -4 10 -9 -2 -5 6 -16 17
-25 19 -15 19 -15 -5 -9 -20 5 -23 3 -13 -7 10 -11 9 -16 -5 -27 -16 -12 -15
-13 3 -8 16 5 16 3 -2 -6 -45 -23 -22 -27 45 -8 37 11 84 24 106 30 21 5 50
16 65 23 15 8 44 18 66 22 33 6 36 8 20 15 -28 11 -37 11 -30 -1 3 -5 1 -10
-4 -10 -6 0 -11 8 -12 18 0 10 -3 12 -6 4 -2 -6 -8 -10 -12 -7 -4 2 -37 5 -74
7 -36 1 -64 5 -61 9 14 23 -57 29 -91 8z"/>
<path d="M1086 6349 c2 -4 -1 -9 -8 -11 -6 -2 5 -17 26 -33 41 -31 56 -25 56
26 0 23 -4 25 -39 25 -22 0 -38 -3 -35 -7z"/>
<path d="M4076 6288 c-5 -35 -3 -53 5 -58 8 -6 8 -9 0 -14 -16 -10 -14 -106 2
-106 6 0 4 -5 -5 -11 -11 -6 -18 -22 -18 -39 0 -26 4 -30 28 -30 37 0 80 30
114 81 36 54 48 99 47 174 -1 33 -3 53 -6 44 -2 -10 -12 -20 -21 -23 -9 -3
-36 -22 -60 -41 -24 -19 -49 -35 -55 -35 -7 0 -1 9 12 19 28 21 38 56 15 47
-9 -3 -12 -1 -9 4 7 11 -17 40 -33 40 -5 0 -13 -23 -16 -52z m99 -138 c-3 -5
-16 -15 -28 -21 -19 -9 -19 -8 3 10 28 23 34 26 25 11z"/>
<path d="M4770 6320 c-75 -30 -250 -121 -250 -129 0 -15 155 -22 265 -11 102
9 244 37 202 39 -17 1 -17 2 -2 17 8 9 22 13 30 10 8 -3 17 -1 21 5 3 6 13 8
23 4 12 -5 13 -4 4 6 -10 10 -15 9 -28 -1 -12 -10 -15 -10 -15 3 0 9 5 19 11
23 8 5 7 9 -1 14 -8 5 -28 0 -48 -12 -19 -10 -38 -15 -41 -10 -3 4 -14 11 -23
15 -10 3 -18 12 -18 20 0 7 -8 13 -17 13 -10 0 -29 3 -43 6 -15 4 -44 -1 -70
-12z m230 -49 c0 -5 -7 -11 -15 -15 -15 -5 -20 5 -8 17 9 10 23 9 23 -2z"/>
<path d="M1020 6309 c0 -5 5 -7 10 -4 6 3 10 8 10 11 0 2 -4 4 -10 4 -5 0 -10
-5 -10 -11z"/>
<path d="M4925 6310 c-3 -5 -1 -10 4 -10 6 0 11 5 11 10 0 6 -2 10 -4 10 -3 0
-8 -4 -11 -10z"/>
<path d="M1032 6282 c-12 -10 -32 -31 -43 -47 -16 -23 -19 -25 -14 -8 5 19 3
21 -22 19 -15 -2 -28 -5 -28 -6 0 -8 -61 -7 -66 1 -3 6 -8 2 -11 -8 -4 -14 10
-36 47 -75 50 -52 58 -56 144 -77 50 -12 153 -39 228 -61 76 -21 139 -38 140
-36 8 7 -68 107 -117 154 -63 61 -201 162 -222 162 -7 0 -23 -8 -36 -18z"/>
<path d="M981 6276 c-7 -8 -8 -17 -3 -19 4 -3 13 3 20 14 14 22 0 26 -17 5z"/>
<path d="M3414 6175 c2 -52 10 -106 19 -128 13 -31 14 -48 5 -100 -6 -34 -16
-68 -22 -76 -6 -8 -6 -12 -1 -9 6 4 11 -24 12 -75 1 -81 1 -81 -12 -42 -25 77
-21 44 40 -330 10 -55 23 -145 31 -200 41 -292 41 -303 2 -269 l-21 19 6 -37
c7 -44 -1 -47 -32 -14 -13 14 -30 22 -38 19 -17 -7 -65 36 -56 50 3 6 1 7 -4
4 -6 -4 -14 0 -17 9 -3 8 -30 26 -59 39 -29 13 -72 41 -95 63 -44 42 -248 175
-269 175 -7 0 -10 4 -8 8 3 3 -31 28 -74 55 l-78 47 34 46 c59 76 68 126 32
162 -19 19 -30 21 -98 17 -42 -3 -96 -13 -121 -22 -81 -31 -80 -31 -81 0 -2
27 -2 27 -6 5 -3 -16 1 -29 13 -38 17 -12 17 -13 -2 -13 -18 0 -124 -55 -124
-65 0 -3 20 -23 45 -46 25 -23 45 -48 45 -55 0 -22 35 -34 90 -29 41 3 51 1
46 -10 -3 -9 0 -12 9 -9 16 6 25 36 25 83 0 42 -37 93 -80 111 -17 7 -29 15
-26 17 8 9 64 -27 90 -57 31 -37 35 -103 11 -150 -20 -38 -12 -38 35 0 l39 31
143 -95 c248 -165 400 -273 488 -346 47 -39 93 -73 103 -76 25 -9 21 -20 -23
-55 -22 -18 -37 -36 -33 -42 3 -5 -1 -13 -8 -18 -9 -6 -10 -9 -2 -9 8 0 10
-12 6 -37 -10 -72 -25 -104 -84 -179 -34 -43 -71 -103 -87 -143 -34 -85 -65
-127 -114 -152 -21 -11 -46 -32 -55 -47 -57 -89 -96 -131 -141 -150 -80 -34
-92 -36 -92 -15 -1 13 -5 11 -16 -10 -19 -35 -14 -42 42 -56 100 -25 194 17
262 116 23 33 61 73 91 93 56 38 88 80 115 152 10 25 31 59 47 74 25 24 29 35
29 79 0 51 19 118 59 205 13 30 19 61 17 90 -3 46 14 80 40 80 10 0 10 -8 2
-32 -5 -18 -14 -50 -19 -70 -5 -21 -20 -62 -34 -92 -40 -88 -58 -170 -50 -236
6 -48 3 -67 -15 -107 -31 -70 -50 -158 -50 -236 0 -59 -4 -74 -29 -111 -50
-72 -65 -134 -58 -243 3 -52 8 -97 10 -100 11 -10 118 50 148 84 44 51 60 95
66 182 4 54 11 86 27 111 48 76 60 120 62 235 1 61 10 139 18 175 19 74 14
144 -15 257 -12 44 -17 90 -14 115 3 24 2 37 -1 31 -12 -27 -22 -11 -13 22 7
24 6 41 -2 56 -8 17 -8 20 1 14 10 -6 11 1 8 26 -3 20 0 46 9 62 15 29 16 17
-51 402 -7 44 -22 128 -31 187 -10 61 -22 105 -28 101 -5 -3 -7 3 -3 14 3 10
2 52 -3 93 -10 74 -9 76 31 172 37 90 42 97 64 92 28 -7 74 19 124 71 l35 36
-41 -15 c-56 -19 -127 -56 -121 -62 3 -3 28 7 56 22 29 14 54 24 57 22 2 -3
-21 -18 -51 -34 -52 -27 -57 -28 -69 -12 -12 16 -14 14 -24 -20 -6 -21 -18
-46 -27 -57 -15 -20 -15 -20 -8 0 3 11 11 26 17 34 7 10 6 16 -7 26 -9 7 -18
25 -18 41 l-1 29 -7 -30 c-5 -23 -9 -8 -19 65 -19 132 -22 138 -18 35z m96
-1284 c0 -16 5 -31 11 -33 6 -2 -1 -9 -17 -16 -24 -12 -26 -11 -14 2 7 10 10
28 6 46 -3 17 -1 30 4 30 6 0 10 -13 10 -29z m43 -269 c33 -130 34 -174 5
-249 -17 -44 -22 -81 -23 -158 -1 -89 -4 -107 -32 -165 -16 -36 -33 -91 -37
-122 -8 -75 -45 -157 -85 -191 -31 -26 -33 -26 -63 -11 -29 15 -30 18 -25 64
3 27 10 57 16 67 52 97 75 162 82 239 6 66 15 98 45 159 36 74 37 79 27 128
-14 69 -8 155 17 212 11 26 20 59 20 75 0 32 9 60 19 60 3 0 19 -48 34 -108z"/>
<path d="M765 6221 c6 -11 4 -13 -8 -8 -9 3 -20 0 -24 -7 -11 -19 -83 -31 -83
-14 0 8 -5 6 -11 -5 -6 -9 -14 -15 -20 -12 -5 3 -38 7 -74 9 -109 5 -59 -16
72 -30 64 -7 127 -15 139 -18 16 -4 24 -1 27 11 4 16 5 16 6 1 1 -16 17 -22
96 -34 l40 -6 -25 27 c-28 31 -110 89 -110 79 0 -3 -8 0 -17 7 -14 12 -16 12
-8 0z m39 -36 c-4 -8 -10 -15 -15 -15 -4 0 -6 7 -3 15 4 8 10 15 15 15 4 0 6
-7 3 -15z"/>
<path d="M9053 6179 c3 -9 8 -36 12 -60 5 -29 18 -57 41 -83 41 -47 42 -43 9
34 -24 57 -73 143 -62 109z"/>
<path d="M4475 6171 c-6 -5 -50 -30 -100 -56 -49 -26 -119 -64 -155 -84 -36
-20 -80 -43 -97 -50 -19 -8 -30 -18 -26 -25 3 -6 3 -8 -1 -4 -16 14 -66 -14
-73 -40 -3 -14 -28 -61 -55 -104 -83 -134 -109 -188 -103 -211 5 -16 4 -18 -3
-8 -6 8 -12 9 -16 3 -3 -5 1 -12 9 -16 10 -4 26 17 54 72 21 42 57 108 79 146
l40 69 15 -29 c27 -51 111 -120 192 -158 22 -10 48 -23 57 -27 10 -5 25 -9 34
-9 14 0 15 2 3 17 -12 15 -12 16 4 10 22 -8 22 -5 -4 24 -53 61 -131 170 -126
175 3 3 13 -8 22 -26 9 -17 48 -64 86 -105 67 -70 72 -73 99 -64 46 16 55 34
35 65 -9 14 -15 27 -13 30 2 2 27 -30 56 -70 52 -76 57 -79 105 -56 28 14 33
33 18 72 -8 23 -135 103 -182 115 -19 5 -20 4 -9 -16 6 -13 10 -25 7 -27 -2
-3 -10 9 -16 25 -10 23 -30 37 -97 67 -92 41 -108 57 -23 24 92 -37 289 -129
299 -140 3 -3 30 -21 60 -39 43 -27 65 -34 99 -32 50 1 81 19 59 32 -7 5 -8 9
-3 9 6 0 20 -7 32 -15 34 -24 38 1 6 38 -86 100 -254 200 -390 232 -92 22
-228 17 -268 -9 -31 -21 -48 -13 -19 9 10 8 80 47 154 87 167 89 199 108 180
108 -9 0 -20 -4 -25 -9z m-285 -233 c29 -10 31 -12 14 -18 -11 -5 -25 -2 -34
5 -8 7 -24 15 -35 18 -19 4 -19 5 1 6 12 0 36 -4 54 -11z m498 -165 c-10 -2
-28 -2 -40 0 -13 2 -5 4 17 4 22 1 32 -1 23 -4z"/>
<path d="M2730 6155 c14 -17 13 -18 -2 -12 -10 3 -20 2 -23 -4 -4 -5 -24 -18
-46 -29 -28 -15 -39 -17 -40 -8 -1 7 -4 2 -8 -12 -5 -18 -3 -27 8 -32 14 -6
14 -7 -1 -7 -11 -1 -31 -30 -58 -88 -22 -47 -43 -84 -46 -81 -3 4 4 25 16 49
37 72 52 121 40 133 -8 8 -9 5 -4 -9 7 -18 6 -18 -9 -6 -15 12 -17 11 -18 -5
0 -11 -3 -14 -6 -6 -7 18 -33 15 -33 -5 0 -15 -2 -16 -10 -3 -5 8 -10 10 -10
5 0 -6 5 -16 11 -22 7 -7 3 -12 -14 -17 -17 -4 -27 -15 -31 -33 -7 -31 48
-311 64 -327 37 -37 296 154 335 247 30 71 15 150 -39 214 -31 37 -102 91 -76
58z m-5 -176 c-8 -19 -13 -25 -9 -14 3 11 9 38 12 60 5 32 7 35 10 14 2 -15
-4 -42 -13 -60z m-35 -98 c-28 -56 -35 -52 -8 4 12 24 23 43 26 41 2 -2 -6
-22 -18 -45z m-47 -82 c-10 -17 -24 -36 -32 -42 -8 -7 -2 7 14 31 32 49 45 57
18 11z m147 17 c0 -2 -7 -7 -16 -10 -8 -3 -12 -2 -9 4 6 10 25 14 25 6z"/>
<path d="M3516 6095 c-3 -8 -1 -15 4 -15 6 0 10 7 10 15 0 8 -2 15 -4 15 -2 0
-6 -7 -10 -15z"/>
<path d="M8988 5877 c-14 -23 -35 -58 -46 -77 -48 -85 -91 -160 -129 -220 -22
-36 -74 -124 -115 -195 -41 -72 -130 -224 -198 -340 -68 -115 -153 -262 -190
-325 -37 -63 -113 -194 -170 -290 -57 -96 -111 -188 -120 -205 -78 -136 -146
-253 -225 -385 -50 -85 -154 -261 -230 -390 -76 -129 -181 -307 -233 -395 -52
-88 -103 -173 -112 -190 -10 -16 -63 -106 -118 -200 -55 -93 -144 -246 -199
-340 -55 -93 -153 -260 -218 -370 -65 -110 -172 -292 -237 -404 -139 -239
-143 -246 -220 -333 -32 -36 -58 -69 -58 -73 0 -3 26 -38 57 -78 32 -40 59
-74 61 -77 2 -3 24 17 49 44 49 54 37 34 418 686 150 256 293 499 318 540 47
77 326 549 497 840 375 638 537 915 743 1275 182 319 321 556 397 680 21 33
93 155 160 270 68 116 129 217 136 225 22 26 94 174 94 193 0 20 -71 177 -80
177 -3 0 -17 -19 -32 -43z m-507 -1039 c-239 -399 -251 -421 -251 -462 0 -49
-24 -44 -28 6 -3 30 11 60 79 175 263 445 293 493 310 493 13 0 -15 -53 -110
-212z"/>
<path d="M2420 5892 c0 -7 -3 -11 -7 -10 -5 1 -18 -3 -30 -10 -12 -7 -26 -11
-30 -10 -4 2 -10 -1 -12 -7 -5 -11 107 -90 115 -82 3 3 -2 31 -10 62 -14 55
-26 81 -26 57z"/>
<path d="M1728 5820 c12 -5 22 -17 22 -26 0 -10 5 -14 15 -10 18 7 20 -5 3
-22 -10 -10 -2 -12 40 -11 28 1 52 6 52 10 0 10 -122 69 -141 68 -8 0 -4 -4 9
-9z"/>
<path d="M2311 5811 c-6 -10 -7 -21 -4 -25 3 -3 1 -6 -5 -6 -7 0 -12 5 -12 12
0 6 -9 3 -20 -7 -19 -17 -19 -19 -4 -37 10 -10 13 -18 8 -18 -9 0 -53 27 -64
39 -3 3 -14 13 -24 21 -20 15 -20 15 0 -18 49 -86 169 -162 254 -162 57 0 57
1 37 88 -12 51 -16 56 -67 84 -30 16 -59 34 -64 39 -15 14 -24 11 -35 -10z"/>
<path d="M1450 5760 c0 -5 5 -10 10 -10 6 0 10 5 10 10 0 6 -4 10 -10 10 -5 0
-10 -4 -10 -10z"/>
<path d="M1915 5752 c9 -9 201 -96 270 -122 37 -14 23 -24 -49 -35 -28 -4 -78
-20 -113 -37 -72 -34 -193 -139 -172 -148 8 -3 15 -13 17 -24 2 -11 -1 -15 -7
-11 -6 3 -11 1 -11 -4 0 -6 3 -11 8 -12 4 0 15 -2 25 -4 22 -4 23 21 1 29 -9
4 -14 9 -10 13 3 4 16 -3 29 -15 23 -22 24 -22 127 -7 57 9 115 15 129 13 14
-2 -17 -9 -69 -17 -52 -8 -88 -16 -80 -19 8 -3 21 -11 28 -19 7 -7 21 -12 30
-12 15 1 15 2 0 6 -16 4 -26 23 -12 23 15 0 44 -22 39 -30 -4 -6 1 -7 11 -3
13 5 15 3 9 -8 -8 -12 17 6 90 64 6 4 39 28 74 52 36 25 58 45 50 45 -7 1 3 7
25 15 50 18 66 33 46 45 -10 6 -2 7 24 3 29 -4 37 -3 32 6 -10 16 -74 47 -115
56 -18 4 -111 40 -207 81 -174 74 -239 96 -219 76z m152 -278 c-3 -3 -12 -4
-19 -1 -8 3 -5 6 6 6 11 1 17 -2 13 -5z m-38 -9 c-8 -8 -154 -54 -158 -49 -5
5 41 23 99 40 49 14 66 17 59 9z"/>
<path d="M4631 5690 c12 -32 29 -49 29 -29 0 7 7 4 15 -7 15 -18 15 -18 8 0
-5 15 -3 17 8 12 18 -10 -31 32 -53 44 -15 9 -16 7 -7 -20z"/>
<path d="M4870 5700 c0 -5 5 -10 10 -10 6 0 10 5 10 10 0 6 -4 10 -10 10 -5 0
-10 -4 -10 -10z"/>
<path d="M4461 5684 c0 -11 3 -14 6 -6 3 7 2 16 -1 19 -3 4 -6 -2 -5 -13z"/>
<path d="M9192 5672 l-22 -17 48 -120 c145 -356 242 -743 292 -1170 19 -159
24 -535 10 -735 -19 -263 -20 -244 13 -248 15 -2 27 0 27 5 0 4 7 69 15 143
33 305 14 803 -45 1143 -54 318 -200 797 -302 991 -13 24 -14 24 -36 8z"/>
<path d="M1290 5603 c-188 -451 -292 -854 -335 -1303 -8 -80 -15 -164 -15
-188 0 -41 1 -42 28 -36 37 9 42 19 42 89 1 164 51 488 115 747 65 262 134
462 251 734 4 8 -34 34 -51 34 -2 0 -18 -35 -35 -77z"/>
<path d="M3801 5494 c-17 -36 -29 -70 -26 -75 4 -5 2 -9 -4 -9 -6 0 -8 -6 -5
-13 2 -7 -4 -30 -15 -52 -11 -22 -21 -33 -21 -25 -2 32 -68 -146 -75 -204 -3
-16 -8 -32 -13 -35 -28 -18 -56 -109 -43 -143 8 -22 9 -21 25 15 8 21 21 57
27 80 6 23 27 83 46 132 19 50 44 115 55 145 12 30 41 97 65 148 46 99 52 117
28 86 -13 -16 -14 -16 -9 -1 14 40 -6 12 -35 -49z"/>
<path d="M2317 5429 l-47 -32 26 -46 c37 -64 41 -68 64 -53 11 6 31 12 44 12
43 0 56 10 56 44 0 24 -10 42 -37 69 -20 21 -41 37 -47 37 -6 0 -32 -14 -59
-31z"/>
<path d="M1795 5344 c-15 -25 -25 -48 -22 -50 7 -7 37 7 37 17 0 5 6 9 13 9 9
0 13 12 13 35 -1 19 -4 35 -7 35 -4 0 -19 -21 -34 -46z"/>
<path d="M2207 5348 c-64 -55 -62 -67 12 -65 33 1 57 -1 54 -5 -2 -5 0 -8 5
-8 25 0 11 97 -15 113 -5 3 -29 -13 -56 -35z"/>
<path d="M3593 4825 c15 -57 21 -71 34 -80 7 -6 26 -57 41 -115 37 -138 57
-176 118 -225 28 -22 65 -63 83 -92 41 -68 103 -120 165 -138 27 -8 79 -34
115 -57 60 -39 70 -43 131 -43 54 0 73 5 114 29 43 25 47 30 33 44 -12 11 -34
14 -89 13 -81 -2 -139 16 -193 61 -17 14 -52 35 -80 48 -29 13 -92 62 -156
122 -90 84 -113 112 -146 178 -31 62 -37 80 -26 84 8 3 24 1 36 -4 21 -10 21
-10 -1 6 -12 9 -37 29 -55 45 -17 16 -38 29 -46 29 -8 0 -11 7 -8 19 3 13 -8
31 -35 58 -30 28 -39 33 -35 18z"/>
<path d="M3601 4720 c-1 -14 5 -45 13 -70 7 -25 16 -88 20 -140 4 -52 15 -124
26 -160 10 -36 24 -84 30 -107 6 -23 26 -61 46 -84 19 -23 42 -58 50 -78 30
-71 102 -120 176 -121 37 0 37 0 27 32 -5 18 -10 46 -10 63 -1 24 -3 25 -6 8
-2 -13 -8 -23 -13 -23 -24 0 -190 232 -190 267 0 10 4 24 9 32 8 12 15 8 40
-18 17 -18 31 -28 31 -21 0 7 -31 44 -69 84 -74 76 -87 101 -122 223 -12 43
-24 80 -28 83 -4 3 -12 16 -18 30 l-12 25 0 -25z"/>
<path d="M3574 4690 c20 -74 46 -208 46 -235 0 -17 -8 -61 -19 -98 -14 -52
-17 -89 -14 -150 4 -57 0 -101 -11 -143 -9 -35 -20 -142 -26 -255 -5 -107 -14
-241 -20 -299 -28 -288 -26 -330 11 -315 10 4 15 25 16 68 5 148 27 336 44
389 22 66 27 214 7 202 -8 -5 -9 0 -5 17 4 13 7 29 7 34 0 6 4 4 9 -4 15 -23
22 283 12 481 -9 178 -29 298 -54 323 -6 7 -7 1 -3 -15z"/>
<path d="M3810 4626 c0 -2 8 -10 18 -17 15 -13 16 -12 3 4 -13 16 -21 21 -21
13z"/>
<path d="M3208 4453 l-17 -38 19 24 c17 19 27 51 17 51 -2 0 -10 -17 -19 -37z"/>
<path d="M3851 4264 c0 -11 3 -14 6 -6 3 7 2 16 -1 19 -3 4 -6 -2 -5 -13z"/>
<path d="M4350 4215 c13 -14 26 -25 28 -25 3 0 -5 11 -18 25 -13 14 -26 25
-28 25 -3 0 5 -11 18 -25z"/>
<path d="M3861 4220 c-1 -8 25 -42 57 -75 31 -33 48 -47 38 -31 -10 17 -32 41
-48 55 -17 13 -34 34 -38 45 -6 13 -9 15 -9 6z"/>
<path d="M2970 4180 c-9 -6 -10 -10 -3 -10 6 0 15 5 18 10 8 12 4 12 -15 0z"/>
<path d="M974 3911 c-27 -15 -30 -19 -19 -34 7 -10 19 -16 26 -15 8 2 14 -4
14 -12 1 -38 18 -48 77 -42 l57 4 -47 59 c-26 32 -54 59 -62 58 -8 0 -29 -8
-46 -18z"/>
<path d="M809 3813 c-13 -16 -12 -17 4 -4 9 7 17 15 17 17 0 8 -8 3 -21 -13z"/>
<path d="M948 3813 c6 -2 18 -2 25 0 6 3 1 5 -13 5 -14 0 -19 -2 -12 -5z"/>
<path d="M766 3765 c-21 -32 -22 -52 -1 -35 9 7 13 15 11 18 -3 2 -1 13 5 23
14 27 4 23 -15 -6z"/>
<path d="M1016 3675 c-3 -8 -1 -15 4 -15 6 0 10 7 10 15 0 8 -2 15 -4 15 -2 0
-6 -7 -10 -15z"/>
<path d="M1345 3564 c-70 -28 -172 -80 -199 -99 -26 -20 -14 -47 19 -41 15 3
25 0 25 -7 0 -8 3 -7 9 2 6 10 10 10 16 1 4 -6 5 -14 2 -16 -3 -3 3 -14 14
-25 10 -10 19 -26 19 -34 0 -18 16 -20 24 -2 3 6 4 3 3 -7 -1 -10 5 -21 13
-24 8 -3 12 -1 8 3 -4 4 2 19 13 33 22 28 13 42 -27 42 -12 0 -36 16 -53 35
-35 40 -38 47 -16 39 8 -4 15 -9 15 -13 0 -12 53 -47 81 -54 17 -5 29 -2 32 6
33 77 77 182 77 184 0 6 -18 1 -75 -23z"/>
<path d="M1000 3460 c0 -5 -6 -7 -13 -4 -9 3 -13 -4 -12 -23 1 -34 -12 -54
-31 -46 -8 3 -14 1 -15 -3 0 -5 -2 -16 -4 -25 -2 -11 21 1 64 32 36 27 75 55
86 63 19 14 17 15 -27 16 -27 0 -48 -4 -48 -10z"/>
<path d="M1328 3339 c-9 -18 -14 -38 -10 -44 35 -60 54 -85 62 -80 5 3 19 -3
31 -14 l22 -20 -29 5 -29 5 22 -22 c22 -22 23 -22 43 -4 11 10 18 25 15 32 -2
8 -1 12 4 9 5 -3 14 1 21 8 9 12 6 18 -18 30 -29 15 -73 60 -103 105 l-15 24
-16 -34z m80 -75 c-1 -5 -9 -9 -16 -10 -10 -2 -11 1 -1 12 12 14 24 13 17 -2z"/>
<path d="M3475 3290 c21 -24 26 -25 19 -6 -3 8 -13 17 -22 21 -13 5 -13 2 3
-15z"/>
<path d="M1286 3265 c-3 -8 -1 -17 3 -20 5 -3 11 2 15 10 3 8 1 17 -3 20 -5 3
-11 -2 -15 -10z"/>
<path d="M2575 3110 c-37 -50 -85 -157 -65 -145 5 3 10 1 10 -4 0 -6 14 -11
30 -11 17 0 30 3 30 8 0 4 12 13 27 19 l27 13 -30 -31 c-28 -30 -28 -31 -10
-45 19 -13 19 -14 -2 -33 -12 -10 -22 -23 -22 -30 0 -23 29 -9 64 32 36 40 37
44 31 96 -7 71 -35 181 -45 181 -5 0 -25 -23 -45 -50z"/>
<path d="M3741 2938 c18 -27 34 -48 36 -48 7 0 -16 35 -42 65 -20 23 -19 18 6
-17z"/>
<path d="M2360 2941 c0 -6 4 -13 10 -16 6 -3 7 1 4 9 -7 18 -14 21 -14 7z"/>
<path d="M2410 2941 c0 -5 14 -11 30 -13 20 -3 30 0 30 9 0 8 -12 13 -30 13
-16 0 -30 -4 -30 -9z"/>
<path d="M2490 2926 c0 -13 7 -27 16 -30 25 -10 72 -7 79 4 4 7 -2 9 -19 4
-17 -4 -26 -2 -26 6 0 7 -6 10 -14 7 -10 -4 -12 0 -9 14 4 13 0 19 -11 19 -10
0 -16 -9 -16 -24z"/>
<path d="M2642 2861 c-31 -45 -40 -84 -18 -81 5 1 13 -4 17 -12 7 -10 9 -10 9
0 0 6 9 21 20 32 20 20 25 59 12 92 -6 14 -13 8 -40 -31z"/>
<path d="M2406 2865 c9 -14 19 -24 21 -21 6 6 -20 46 -30 46 -4 0 0 -11 9 -25z"/>
<path d="M2482 2870 c2 -20 8 -25 33 -25 17 0 29 3 28 8 -2 4 -5 6 -6 5 -2 -2
-11 3 -20 11 -10 7 -17 10 -17 5 0 -5 -5 -2 -11 6 -8 12 -9 10 -7 -10z"/>
<path d="M3798 2839 c9 -23 18 -37 20 -31 3 10 -24 72 -32 72 -3 0 3 -19 12
-41z"/>
<path d="M2560 2801 c-14 -28 -12 -41 6 -34 8 3 13 12 10 19 -3 8 -1 14 4 14
6 0 10 5 10 10 0 17 -19 11 -30 -9z"/>
<path d="M2490 2790 c13 -23 20 -26 20 -6 0 8 -7 16 -15 20 -13 4 -14 2 -5
-14z"/>
<path d="M3129 2743 c-13 -16 -12 -17 4 -4 16 13 21 21 13 21 -2 0 -10 -8 -17
-17z"/>
<path d="M3832 2740 c0 -14 2 -19 5 -12 2 6 2 18 0 25 -3 6 -5 1 -5 -13z"/>
<path d="M2531 2717 c0 -10 -6 -15 -12 -12 -6 4 -5 -3 3 -14 10 -17 14 -18 16
-6 2 8 1 23 -1 33 -4 16 -5 16 -6 -1z"/>
<path d="M3297 2658 c-9 -28 -12 -47 -8 -42 11 12 34 84 29 89 -2 3 -12 -18
-21 -47z"/>
<path d="M3211 2543 c-23 -27 -41 -52 -41 -57 0 -5 10 4 22 20 12 16 35 41 50
57 15 15 24 27 19 27 -5 0 -28 -21 -50 -47z"/>
<path d="M2676 2516 c6 -15 34 -30 34 -18 0 4 -9 13 -20 19 -16 11 -18 10 -14
-1z"/>
<path d="M3125 2389 c-4 -6 -5 -12 -2 -15 2 -3 7 2 10 11 7 17 1 20 -8 4z"/>
<path d="M2963 2255 c-24 -25 -43 -50 -43 -57 0 -6 13 6 29 26 16 20 39 45 52
56 13 10 20 19 15 20 -5 0 -29 -20 -53 -45z"/>
<path d="M2895 2159 c-4 -6 -5 -12 -2 -15 2 -3 7 2 10 11 7 17 1 20 -8 4z"/>
<path d="M8615 2110 c-4 -11 -11 -17 -17 -14 -7 5 -8 2 -4 -5 6 -9 13 -8 27 5
10 9 16 21 13 25 -8 13 -12 11 -19 -11z"/>
<path d="M3640 1350 l0 -230 29 0 c16 0 43 3 61 6 l32 7 -4 153 -4 153 31 -19
c20 -13 29 -27 28 -42 -6 -81 -10 -196 -5 -163 6 37 7 35 12 -25 l5 -65 36 -3
36 -3 5 115 c2 64 7 118 11 122 6 7 25 2 482 -126 154 -44 386 -108 515 -144
129 -36 325 -90 435 -121 110 -31 223 -62 250 -70 28 -7 91 -25 140 -40 50
-15 109 -31 132 -35 40 -6 113 -4 121 5 3 2 -18 33 -46 68 -28 35 -56 75 -63
90 -11 25 -16 27 -78 27 -77 0 -152 17 -131 30 9 5 0 8 -23 6 -20 -2 -37 0
-37 3 0 3 -17 7 -37 8 -20 1 -39 5 -42 10 -3 4 -10 8 -16 9 -37 1 -422 99
-665 169 -85 24 -236 65 -335 90 -99 26 -283 75 -410 110 -126 35 -269 73
-318 84 -48 11 -101 28 -117 36 l-30 16 0 -231z"/>
<path d="M8037 1364 c-10 -13 -14 -24 -10 -24 9 0 36 40 31 45 -2 2 -11 -8
-21 -21z"/>
<path d="M7995 1319 c-4 -6 -5 -12 -2 -15 2 -3 7 2 10 11 7 17 1 20 -8 4z"/>
<path d="M7957 1288 c-10 -11 -17 -22 -14 -24 2 -2 12 5 22 16 23 26 16 33 -8
8z"/>
<path d="M7910 1240 c-6 -11 -8 -20 -6 -20 3 0 10 9 16 20 6 11 8 20 6 20 -3
0 -10 -9 -16 -20z"/>
<path d="M7640 1011 c0 -8 -7 -11 -17 -6 -15 5 -16 4 -5 -6 9 -10 15 -10 24
-1 6 6 9 15 5 19 -4 3 -7 1 -7 -6z"/>
<path d="M6625 920 l-20 -9 20 0 c11 0 27 4 35 9 13 9 13 10 0 9 -8 0 -24 -4
-35 -9z"/>
<path d="M6531 899 c-59 -11 -62 -17 -8 -15 24 0 50 7 56 14 13 13 14 13 -48
1z"/>
<path d="M7354 805 c-10 -8 -14 -15 -8 -15 6 0 17 7 24 15 16 19 9 19 -16 0z"/>
<path d="M7303 775 c0 -7 6 -11 14 -8 7 3 13 6 13 8 0 2 -6 5 -13 8 -8 3 -14
-1 -14 -8z"/>
<path d="M6945 578 c-3 -7 -19 -14 -35 -15 -34 -2 -63 -21 -68 -41 -1 -8 1
-11 5 -9 5 3 29 14 55 26 26 11 50 26 53 31 4 6 11 8 16 5 5 -4 9 -1 9 4 0 15
-30 14 -35 -1z m-55 -32 c0 -2 -7 -7 -16 -10 -8 -3 -12 -2 -9 4 6 10 25 14 25
6z"/>
<path d="M6270 310 c-21 -7 -21 -8 -5 -9 11 0 27 4 35 9 18 11 5 11 -30 0z"/>
</g>
</svg>
